/* XPM */
static char *a5654e27d65441e7e9ef75eeaf458168cjsdYl4IzwxoWoDY[] = {
/* columns rows colors chars-per-pixel */
"32 32 8 1 ",
"  c #733E39",
". c #B86F50",
"X c #3E2731",
"o c #181425",
"O c #3A4466",
"+ c #262B44",
"@ c #5A6988",
"# c white",
/* pixels */
"                                ",
"  ...... .........   ...  ....  ",
" ....... ..........  .... ..... ",
" ......    ........     . ..... ",
" ...         ..........   . ... ",
" ... XXX  XXXXXXXXXXXXXX oX ... ",
" ... XXXoXXXXoXXXXXXXXXXXoX ... ",
"  .. O+o+++OOOOOO+++oooooo+ ..  ",
"   . ++o+++O@@@O@O++ooo++++ .   ",
" .   +oo+++O@@@@O++++++++++   . ",
" .   +o+++++OOOOO+++++OOOOO   . ",
" ..  ++++o++++++++oo+++O@@O  .. ",
" ..  OOO+oo+++++++oooo++OO@  .. ",
" ..  @@O+oo++++++++++oo++O@  .. ",
" ... @@O+o+++O@@@OO++++++O@ ... ",
" ... @@O+++OO@@@@@@@OO++++@ ... ",
" ... OO++++OO@@@@@@@@@+++OO ... ",
" ... ++++o+OO@@@@@@@@@+++O+ ... ",
" ... +o+oo+++OO@@@@@@O+++++ ... ",
"  .. +++++++++++O@@OO+++o++ ..  ",
"     +OOO++o+++++OO++++o+++     ",
"     O@@@O++o++++O+++ooo++O     ",
"  .. OO@@@O++o++++++++++o++ ..  ",
" ... O@@@@@O+o+++oo+OOOO+++ ... ",
" ... O@@@@@O+++O++o+O@@@O++ ... ",
" . . O@@@@OO+++OO+++O@@@O++ . . ",
" .   OO@@@OO+++OO+++OOO@O++   . ",
" .   OO+++++oo+OOO+++++OO++   . ",
" ..  ++oooooooo+++ooooo+++o  .. ",
" ..  oooooooooooooooooooooo  .. ",
" ... X        X        X    ... ",
" ... XXXXXXXXXXXXXXXXXXXXXX ... "
};
