/* XPM */
static char *b87ad5f0eafa4524f1b7f09b73b2f211qnJc235TJb42cDNr[] = {
/* columns rows colors chars-per-pixel */
"32 32 3 1 ",
"  c None",
". c #733E39",
"X c #B86F50",
/* pixels */
".XXX.                      .XXX.",
".XXX.                      .XXX.",
"..XX.                      .XX..",
"...X.                      .X...",
".....                      .....",
".XXX.                      .XXX.",
".XXX.                      .XXX.",
".XX..                      ..XX.",
".X...                      ...X.",
"...X.                      .X...",
"...X.                      .X...",
"..XX.                      .XX..",
"..XX.                      .XX..",
"..XX.                      .XX..",
".XXX.                      .XXX.",
".XXX.                      .XXX.",
".XXX.                      .XXX.",
".XXX.                      .XXX.",
".XXX.                      .XXX.",
".XX..                      ..XX.",
".....                      .....",
".....                      .....",
".XX..                      ..XX.",
".XXX.                      .XXX.",
".XXX.                      .XXX.",
".X.X.                      .X.X.",
"...X.                      .X...",
"...X.                      .X...",
"..XX.                      .XX..",
"..XX.                      .XX..",
".XXX.                      .XXX.",
".XXX.                      .XXX."
};
