/* XPM */
static char *d4910b5180614037926ff5d382def782kUBMvsNwbMvkr9px[] = {
/* columns rows colors chars-per-pixel */
"32 32 3 1 ",
"  c None",
". c #733E39",
"X c #B86F50",
/* pixels */
".....                           ",
"XXX..                           ",
"XXXX.                           ",
"XXXX.                           ",
".XXX.                           ",
".XXX.                           ",
".XXX.                           ",
".XX..                           ",
".X...                           ",
"...X.                           ",
"...X.                           ",
"..XX.                           ",
"..XX.                           ",
"..XX.                           ",
".XXX.                           ",
".XXX.                           ",
".XXX.                           ",
".XXX.                           ",
".XXX.                           ",
".XX..                           ",
".....                           ",
".....                           ",
".XX..                           ",
".XXX.                           ",
".XXX.                           ",
".X.X.                           ",
"...X.                           ",
"...X.                           ",
"..XX.                           ",
"..XX.                           ",
".XXX.                           ",
".XXX.                           "
};
