/* XPM */
static char *result[] = {
/* columns rows colors chars-per-pixel */
"32 32 3 1 ",
"  c #733E39",
". c #B86F50",
"X c None",
/* pixels */
"XXXXXXXXXXXXXXXXXXXXXXXXXXX ... ",
"XXXXXXXXXXXXXXXXXXXXXXXXXXX ... ",
"XXXXXXXXXXXXXXXXXXXXXXXXXXX ..  ",
"XXXXXXXXXXXXXXXXXXXXXXXXXXX .   ",
"XXXXXXXXXXXXXXXXXXXXXXXXXXX     ",
"XXXXXXXXXXXXXXXXXXXXXXXXXXX ... ",
"XXXXXXXXXXXXXXXXXXXXXXXXXXX ... ",
"XXXXXXXXXXXXXXXXXXXXXXXXXXX  .. ",
"XXXXXXXXXXXXXXXXXXXXXXXXXXX   . ",
"XXXXXXXXXXXXXXXXXXXXXXXXXXX .   ",
"XXXXXXXXXXXXXXXXXXXXXXXXXXX .   ",
"XXXXXXXXXXXXXXXXXXXXXXXXXXX ..  ",
"XXXXXXXXXXXXXXXXXXXXXXXXXXX ..  ",
"XXXXXXXXXXXXXXXXXXXXXXXXXXX ..  ",
"XXXXXXXXXXXXXXXXXXXXXXXXXXX ... ",
"XXXXXXXXXXXXXXXXXXXXXXXXXXX ... ",
"XXXXXXXXXXXXXXXXXXXXXXXXXXX ... ",
"XXXXXXXXXXXXXXXXXXXXXXXXXXX ... ",
"XXXXXXXXXXXXXXXXXXXXXXXXXXX ... ",
"XXXXXXXXXXXXXXXXXXXXXXXXXXX  .. ",
"XXXXXXXXXXXXXXXXXXXXXXXXXXX     ",
"XXXXXXXXXXXXXXXXXXXXXXXXXXX     ",
"XXXXXXXXXXXXXXXXXXXXXXXXXXX  .. ",
"XXXXXXXXXXXXXXXXXXXXXXXXXXX ... ",
"XXXXXXXXXXXXXXXXXXXXXXXXXXX ... ",
"XXXXXXXXXXXXXXXXXXXXXXXXXXX . . ",
"XXXXXXXXXXXXXXXXXXXXXXXXXXX .   ",
"XXXXXXXXXXXXXXXXXXXXXXXXXXX .   ",
"XXXXXXXXXXXXXXXXXXXXXXXXXXX ..  ",
"XXXXXXXXXXXXXXXXXXXXXXXXXXX ..  ",
"XXXXXXXXXXXXXXXXXXXXXXXXXXX ... ",
"XXXXXXXXXXXXXXXXXXXXXXXXXXX ... "
};
