/* XPM */
static char *bd943daf89ae4549a1c4d4d5a6d38c69Fkl1XyMMNZKK9xyW[] = {
/* columns rows colors chars-per-pixel */
"32 32 8 1 ",
"  c #733E39",
". c #B86F50",
"X c #3E2731",
"o c #181425",
"O c #3A4466",
"+ c #262B44",
"@ c #5A6988",
"# c white",
/* pixels */
"                                ",
"... .........   ...  ...........",
"... ..........  .... ....      .",
"..    ........     . ...     ...",
"        ..........   ...........",
"XXX  XXXXXXXXXXXXXX oXXXXXXXXXXX",
"XXXoXXXXoXXXXXXXXXXXoXXXXXXoXXXX",
"O+o+++OOOOOO+++oooooo++OOO+OOOOO",
"++o+++O@@@O@O++ooo+++++OOOO+++++",
"+oo+++O@@@@O++++++++++++O+++++++",
"+o+++++OOOOO+++++OOOOO+++oo+++++",
"++++o++++++++oo+++O@@O++oooo++OO",
"OOO+oo+++++++oooo++OO@O++oo+OO@@",
"@@O+oo++++++++++oo++O@@O+++O@@@@",
"@@O+o+++O@@@OO++++++O@@O+++O@@@@",
"@@O+++OO@@@@@@@OO++++@OO+++O@@@@",
"OO++++OO@@@@@@@@@+++OOO++++OOOOO",
"++++o+OO@@@@@@@@@+++O+++oo++++++",
"+o+oo+++OO@@@@@@O++++++oooo+oooo",
"+++++++++++O@@OO+++o+++++oo++ooo",
"+OOO++o+++++OO++++o+++OOO+++++o+",
"O@@@O++o++++O+++ooo++OO@@OOO++++",
"OO@@@O++o++++++++++o++O@@@@OO+o+",
"O@@@@@O+o+++oo+OOOO+++OO@@@@O+o+",
"O@@@@@O+++O++o+O@@@O+++O@@@OO+++",
"O@@@@OO+++OO+++O@@@O+++O@@@O++++",
"OO@@@OO+++OO+++OOO@O++++O@@O+++O",
"OO+++++oo+OOO+++++OO++o+OOOO+oo+",
"++oooooooo+++ooooo+++ooo++++++oo",
"oooooooooooooooooooooooooooooooo",
"oooooooooooooooooooooooooooooooo",
"oooooooooooooooooooooooooooooooo"
};
