/* XPM */
static char *fbe8cae81a384ee4f69026f21bae98e6HlMG6IPqRMrrXn0H[] = {
/* columns rows colors chars-per-pixel */
"32 32 8 1 ",
"  c None",
". c #181425",
"X c #3E2731",
"o c #733E39",
"O c #262B44",
"+ c #3A4466",
"@ c #B86F50",
"# c #5A6988",
/* pixels */
"                           o@@@o",
"                           o@@@@",
"                           o@@@@",
"                           o@@@@",
"                           o@@@@",
"                           XXXXX",
"                           XXXXX",
"                           .OO++",
"                           .OOOO",
"                           .OOOO",
"                           .OOOO",
"                           .OO++",
"                           .O+##",
"                           .+###",
"                           .+###",
"                           .O+##",
"                           .OO++",
"                           .OOOO",
"                           .....",
"                           .O...",
"                           .OO.O",
"                           .OOOO",
"                           .OO.O",
"                           ..O.O",
"                           ..OOO",
"                           ..OOO",
"                           ..OO+",
"                           .O..O",
"                           .OO..",
"                           .....",
"                           .....",
"                           ....."
};
