/* XPM */
static char *result[] = {
/* columns rows colors chars-per-pixel */
"32 32 4 1 ",
"  c #262B44",
". c #3A4466",
"X c #5A6988",
"o c None",
/* pixels */
"oooooooooooooooooooooooooooooooo",
"oooooooooooooooooooooooooooooooo",
"oooooooooooooooooooooooooooooooo",
"oooooooooooooooooooooooooooooooo",
"oooooooooooooooooooo.ooooooooooo",
"ooooooooooooooooooXXXooooooooooo",
"oooooooooooooooooXXXXXXooooooooo",
"ooooooooooooooooXXXXXXX oooooooo",
"oooooooooooooooo.XXXXX  oooooooo",
"oooooooooooooooo..  ..  .ooooooo",
"oooooooooooooooo.   ..  .ooooooo",
"oooooooooooooooXX   ..  .ooooooo",
"oooooooooooooooXX   .. ..ooooooo",
"ooooooooooooooXXXXX .. ..ooooooo",
"oooooooooooooo. XXXX.....ooooooo",
"oooooooooooooo. .... ....ooooooo",
"oooooooooXXXo.. .... ....ooooooo",
"oooooooooXXXX.  .... .....oooooo",
"ooooooooXXXXXX  ....  . ..oooooo",
"ooooooooXXXXXXX  ...  . ..oooooo",
"ooooooo..XXXXXX   ..    ..oooooo",
"ooooooo...XXXXXX  ..    .. ooooo",
"oooooo...... .... ..       ooooo",
"oooooo.. ...  ..  ..       ooooo",
"oooooo.  ..                ooooo",
"oooooo   ..              ooooooo",
"ooooooooo        ooooooooooooooo",
"oooooooooooooooooooooooooooooooo",
"oooooooooooooooooooooooooooooooo",
"oooooooooooooooooooooooooooooooo",
"oooooooooooooooooooooooooooooooo",
"oooooooooooooooooooooooooooooooo"
};
