/* XPM */
static char *result[] = {
/* columns rows colors chars-per-pixel */
"32 32 5 1 ",
"  c #3A4466",
". c #5A6988",
"X c #8B9BB4",
"o c #C0CBDC",
"O c None",
/* pixels */
"OOOOOOOOOOOOOOOOOOOOOOOOOOOOOOOO",
"OOOOOOOOOOOOOOOOOOOOOOOOOOOOOOOO",
"OOOOOOOOOOOOOOOOOOOOOOOOOOOOOOOO",
"OOOOOOOOOOOOOOOOOOOOOOOOOOOOOOOO",
"OOOOOOOOOOOOOOOOOOOOOOOOOOOOOOOO",
"OOOOOOOOOOOOOOOOOOOOOOOOOOOOOOOO",
"OOOOOOOooOOOOOOOOOOOOOOOOOOOOOOO",
"OOOOOOOOXXOOOOOOOOOOOOOOOOOOOOOO",
"OOOOOOooX.OOOOOOOOOOOOOOOOOOOOOO",
"OOOOOoXOOOOOOOOOOOOOOOOOOOOOOOOO",
"OOOOo.OOOOOOOOOOOOOOOOOOOOOOOOOO",
"OXXo.OOOOOOOOOOOOOOOOOOOOOOOOOOO",
"OO.XOOOOOOOOOXXoXXOOOOXXoXOOOOOO",
"OOO.XOOOOOOOo.OOO.XOXo.OO.oOOOOO",
"OOOOOOOOOOOOXXXooo.X.XooXO.OOOOO",
"OOOOOOOOOOOX.OOOO.ooX.OO.XOOOOOO",
"OOOOOOOOOOOoXXXoOOXoXXoXOXOOOOOO",
"OOOOOOooooOXOOOOXoOo.OO.XoOOOOOO",
"OOOooo  oooOOOOOO.XXOOOOOXooOOOO",
"OOOoooXXooooOOOOOOOOOOOOOOOoOOOO",
"OOooooooo.XXOOOOOOOOOOOOOOOOOOOO",
"OOooooooo  XOOOOOOOOOOOOOOOOOOOO",
"OOoooooooXXooOOOOOOOOOOOOOOOOOOO",
"OOXooooooooooOOOOOOooOOOOOOOooOO",
"OOXooooooooooOOOOOOOXXoooooXXOOO",
"OOXXooooooooXOOOOOOX.OOOOOOO.XOO",
"OOXXXXXXXoX.OOOOOOOOOOOOOOOOOOOO",
"OOO.XXXX.OOOOOOOOOOOOOOOOOOOOOOO",
"OOOO....OOOOOOOOOOOOOOOOOOOOOOOO",
"OOOOOOOOOOOOOOOOOOOOOOOOOOOOOOOO",
"OOOOOOOOOOOOOOOOOOOOOOOOOOOOOOOO",
"OOOOOOOOOOOOOOOOOOOOOOOOOOOOOOOO"
};
