/* XPM */
static char *result[] = {
/* columns rows colors chars-per-pixel */
"32 32 5 1 ",
"  c #3E2731",
". c #733E39",
"X c #B86F50",
"o c #C28569",
"O c None",
/* pixels */
"OOOOOOOOOOOOOOOOOOOOOOOOOOOOOOOO",
"OOOOOOOOOOOOOOOOOOOOOOOOOOOOOOOO",
"OOOOOOOOOOOOOOOOOOOOOOOOOOOOOOOO",
"OOOOOOOOOOOOOOOOOOOOOOOOOOOOOOOO",
"OOOOOOOOOOOOOOOOOOOOOOOOOOOOOOOO",
"OOOOOOOOOOOOOOOOOOOOOOOOOOOOOOOO",
"OOOOOOOOOOOOOOOOOOOOOOOOOOOOOOOO",
"OOOOOOOOOOOOOOOOOOOOOOOOOOOOOOOO",
"OOOOOOOOOOOOOOOOOOOOOOOOOOOOOOOO",
"OOOOOOOOOOOOOOOOOOOOOOOOOOOOOOOO",
"OOOOOOOOOOOOOOOOOOOOOOOOOOOOOOOO",
"OOOOOOOOOOOOXXXoooXOOOOOOOOOOOOO",
"OOOOOOOOOOO.XoXXXXX.OOOOOOOOOOOO",
"OOOOOOOOOOO. ooXXXXX.OOOOOOOOOOO",
"OOOOOOOOOO.    XXXXX..OOOOOOOOOO",
"OOOOOOO.oooX   ...XX...OOOOOOOOO",
"OOOOOO.oXXXXX  .........OOOOOOOO",
"OOOOO. oXXXXXX .........OOOOOOOO",
"OOOOO.   XXXXX ... ......OOOOOOO",
"OOOOO.   .........   ... OOOOOOO",
"OOOOO    ... ....    .  OOOOOOOO",
"OOOOOOO                OOOOOOOOO",
"OOOOOOOOOO  OOOOOOOOOOOOOOOOOOOO",
"OOOOOOOOOOOOOOOOOOOOOOOOOOOOOOOO",
"OOOOOOOOOOOOOOOO.XXXXX.OOOOOOOOO",
"OOOOOOOOOOOOOOOO.XXXX...OOOOOOOO",
"OOOOOOOOOOOOOOOO ....   OOOOOOOO",
"OOOOOOOOOOOOOOOOOO   OOOOOOOOOOO",
"OOOOOOOOOOOOOOOOOOOOOOOOOOOOOOOO",
"OOOOOOOOOOOOOOOOOOOOOOOOOOOOOOOO",
"OOOOOOOOOOOOOOOOOOOOOOOOOOOOOOOO",
"OOOOOOOOOOOOOOOOOOOOOOOOOOOOOOOO"
};
