/* XPM */
static char *result[] = {
/* columns rows colors chars-per-pixel */
"32 32 4 1 ",
"  c #265C42",
". c #3E8948",
"X c #63C74D",
"o c None",
/* pixels */
"oooooooooooooooooooooooooooooooo",
"oooooooooooooooooooooooooooooooo",
"oooooooooooooooooooooooooooooooo",
"oooooooooooooooooooooooooooooooo",
"oooooooooooooooooooooooooooooooo",
"oooooooooooooooooooooooooooooooo",
"oooooooooooooooooooooooooooooooo",
"oooooo....oooooooooooooooooooooo",
"ooooo........oo...ooo...oooooooo",
"oooo..XXX.................oooooo",
"oooo.XXXXXXX..............oooooo",
"oooo.XXXXXXXXXXXX..........ooooo",
"oooo.XXXXXXXXXXXXXXXXXXXX..ooooo",
"oooo..XXXXXXXXXXXXXXXXXXX...oooo",
"oooo..XXX.XXXXXXXXXXXXXXXX..oooo",
"oooo..XX..XXXXXXXXXXXXXXXX..oooo",
"oooo .XX...XXXXXXXXXXXXXX...oooo",
"ooooo.XX...XXX.XXX.XXXXXX.. oooo",
"ooooo X....XXX..X....XXX...ooooo",
"ooooo   ....X...X....XX... ooooo",
"oooooooo ...... X.....X.. oooooo",
"oooooooo  .... o .  ..... oooooo",
"oooooooooo .. oo  ooo    ooooooo",
"ooooooooooo..ooo oooooo oooooooo",
"ooooooooooo. ooooooooooooooooooo",
"ooooooooooo. ooooooooooooooooooo",
"ooooooooooo  ooooooooooooooooooo",
"oooooooooooooooooooooooooooooooo",
"oooooooooooooooooooooooooooooooo",
"oooooooooooooooooooooooooooooooo",
"oooooooooooooooooooooooooooooooo",
"oooooooooooooooooooooooooooooooo"
};
