/* XPM */
static char *result[] = {
/* columns rows colors chars-per-pixel */
"32 32 10 1 ",
"  c #3E2731",
". c #265C42",
"X c #A22633",
"o c #E43B44",
"O c #F6757A",
"+ c #3E8948",
"@ c #63C74D",
"# c #E4A672",
"$ c #E8B796",
"% c None",
/* pixels */
"%%%%%%%%%%%%%%%%%%%%%%%%%%%%%%%%",
"%%%%%%%%%%%%%%%%%%%%%%%%%%%%%%%%",
"%%%%%%%%%%%%%%%%%%%%%%%%%%%%%%%%",
"%%%%%%%%%%%%%%%%%%%%%%%%%%%%%%%%",
"%%%%%%%oooX%%%%%%%%%%%%%%%%%%%%%",
"%%%%%oooooXO%%%%%%%%%%%%%%%%%%%%",
"%%%OooooXXOO%%%%%%%%%%%%%%%%%%%%",
"%%XOOoXOOXXXX%%%%%%%%%%%%%%%%%%%",
"%% XXXXOOXXXX %%%%%%%%%%%%%%%%%%",
"%%   XXXXX    %%%%%%%%%%%%%%%%%%",
"%%%          %%%%%%%%%%%%%%%%%%%",
"%%%%%####%%%%%%%%%%%%%%%%%%%%%%%",
"%%%%%##$$%%%%%%%%%%%%%%%%%%%%%%%",
"%%%%%$$$$#%%%%%%%%%%%%%%%%%%%%%%",
"%%%%%#$$$#%%%%%%%%%%%%%%%%%%%%%%",
"%%%%%%###%%%%%%%%%%%%@@%%%%%%%%%",
"%%%%%%%%%%%%%%%%%%%%@@++%%%%%%%%",
"%%%%%%%%%%%%%%%%%%%@+++..%%%%%%%",
"%%%%%%%%%%%%%%%%%%%%.....%%%%%%%",
"%%%%%%%%%%%%%%%%%%%%%##%%%%%%%%%",
"%%%%%%%%%%%%%%%%%%%%$$#%%%%%%%%%",
"%%%%%%%%%%%%%%%%%%%%##%%%%%%%%%%",
"%%%%%%%%%%%%%%%%%%%%%%%%%%%%%%%%",
"%%%%%%%%%%%%%%%%%%%%%%%%%%%%%%%%",
"%%%%%%%%%%%%%%%%%%%%%%%%%%%%%%%%",
"%%%%%%%%%%%%%%%%%%%%%%%%%%%%%%%%",
"%%%%%%%%%%%%%%%%%%%%%%%%%%%%%%%%",
"%%%%%%%%%%%%%%%%%%%%%%%%%%%%%%%%",
"%%%%%%%%%%%%%%%%%%%%%%%%%%%%%%%%",
"%%%%%%%%%%%%%%%%%%%%%%%%%%%%%%%%",
"%%%%%%%%%%%%%%%%%%%%%%%%%%%%%%%%",
"%%%%%%%%%%%%%%%%%%%%%%%%%%%%%%%%"
};
