/* XPM */
static char *result[] = {
/* columns rows colors chars-per-pixel */
"32 32 5 1 ",
"  c #C28569",
". c #B86F50",
"X c #733E39",
"o c #3E2731",
"O c white",
/* pixels */
" .............................. ",
"X  ..........................  X",
"XXX   ....             ..    XXX",
"XXXXXo    ooooooooooooo  ooXXXXX",
"oXoXXoXooooooooooooooooXoooXXoXo",
"oXoXXoXooooooooooooooooXoooXXoXo",
"XXoXooXXoooooooooooooooXooooXoXX",
".XXXooXXoooooooooooooooXXoooXXX.",
"...XXXXXXXXXXXXXXXXXXXXXXXXXX...",
" .......XXXXXX........XXX...... ",
" .............................. ",
" .............................. ",
"X  ..........................  X",
"XXX          .....           XXX",
"oXXXXooXooooo     oooooooooXXXXX",
"oXXXXooooooooXXooooooooooooXXXXo",
"oXoXoooooooooXoooooXooooooooXoXo",
"XXoXoooXoooooXoooooXooooooooXoXX",
".XXXoooXXooooXooooXXooooooooXXX.",
"..XXXXXXXXXXXXXXXXXXXXXXXXXXX...",
" ...........XXXXXXX............ ",
" .............................. ",
" .............................. ",
"X  ..........................  X",
"XXX   .......        ....    XXX",
"XXoXXo       oooXXooo    ooXXoXX",
"oXoXXoXoooooooooXXoooXoooooXXoXo",
"oXoXooXoooooooooXooooXoXoooXXoXo",
"XXoXooXooooooooooooooXoXooooXoXX",
".XXXooXXoooooooooooooXXXooooXXX.",
"...XXXXXXXXXXXXXXXXXXXXXXXXXX...",
"......XXXXXXXX.......XXXXX......"
};
