/* XPM */
static char *result[] = {
/* columns rows colors chars-per-pixel */
"32 32 4 1 ",
"  c #181425",
". c #B86F50",
"X c #3E2731",
"o c white",
/* pixels */
"                            ....",
"                            ....",
"                            ....",
"                            ....",
"                            ....",
"                            ....",
"                            ....",
"                             ...",
"                             ...",
"                             ...",
"                             ...",
"                             ...",
"                             ...",
"                             ...",
"                             ...",
"                             ...",
"                            X...",
"                             ...",
"                             ...",
"                             ...",
"                             ...",
"                             ...",
"                             ...",
"                             ...",
"                             ...",
"                             ...",
"                             ...",
"                              ..",
"...                           ..",
"............               .....",
"................................",
"................................"
};
