/* XPM */
static char *result[] = {
/* columns rows colors chars-per-pixel */
"32 32 3 1 ",
"  c #B86F50",
". c #181425",
"X c white",
/* pixels */
"    ............................",
"    ............................",
"    ............................",
"    ............................",
"    ............................",
"    ............................",
"   .............................",
"   .............................",
"   .............................",
"   .............................",
"   .............................",
"   .............................",
"   .............................",
"    ............................",
"    ............................",
"    ............................",
"    ............................",
"    ............................",
"    ............................",
"    ............................",
"    ............................",
"    ............................",
"     ...........................",
"     ...........................",
"      ..........................",
"      ..........................",
"      ..........................",
"      ..........................",
"      ..........................",
"     ...........................",
"     ...........................",
"    ............................"
};
