/* XPM */
static char *result[] = {
/* columns rows colors chars-per-pixel */
"32 32 5 1 ",
"  c #B86F50",
". c #733E39",
"X c #3E2731",
"o c #181425",
"O c white",
/* pixels */
"                                ",
"                                ",
"                                ",
"..........                ......",
"................................",
"................................",
"................................",
"..........................X.....",
".........XX...............X.....",
".XXXXXXXXXXXXXX...........XX....",
"XXXXXXXXXXXXXXXXX.........XXXXXX",
"XXXXXXXXXXXXXXXXXXX.XXXXXXXXXXXX",
"XXXXXXXXXXXXXXXXXXXXXXXXXXXXXXXX",
"XXXXXXXXXXXXXXXXXXXXXXXXXXXXXXXX",
"XXXXXXXXXXXXXXXXXXXXXXXXXXXXXXXX",
"ooooooooXXXXXXXXXXXXXXXXXXXXXXXX",
"ooooooooooooXXXXXXXXXXXXXXXXXXoo",
"ooooooooooooooooooXXXXXXXXXXoooo",
"oooooooooooooooooooooooooooooooo",
"oooooooooooooooooooooooooooooooo",
"oooooooooooooooooooooooooooooooo",
"oooooooooooooooooooooooooooooooo",
"oooooooooooooooooooooooooooooooo",
"oooooooooooooooooooooooooooooooo",
"oooooooooooooooooooooooooooooooo",
"oooooooooooooooooooooooooooooooo",
"oooooooooooooooooooooooooooooooo",
"oooooooooooooooooooooooooooooooo",
"oooooooooooooooooooooooooooooooo",
"oooooooooooooooooooooooooooooooo",
"oooooooooooooooooooooooooooooooo",
"oooooooooooooooooooooooooooooooo"
};
