/* XPM */
static char *result[] = {
/* columns rows colors chars-per-pixel */
"32 32 5 1 ",
"  c #B86F50",
". c #733E39",
"X c #3E2731",
"o c #181425",
"O c white",
/* pixels */
"                                ",
"                                ",
"                       ....     ",
"....                X.......    ",
"....................X.......    ",
"....................X.......    ",
"....................XX.......   ",
"....................XX.......   ",
"..........X......XXXXXX.XX...   ",
"...X......XXXXXXXXXXXXXXXXX..   ",
"XXXXXXXXXXXXXXXXXXXXXXXXXXXX.   ",
"XXXXXXXXXXXXXXXXXXXXXXXXXXXXX   ",
"XXXXXXXXXXXXXXXXXXXXXXXXXXXXX   ",
"XXXXXXXXXXXXXXXooooooooXXXXXX   ",
"XXXXXXXoooooooooooooooooooXXX   ",
"XXooooooooooooooooooooooooXXX   ",
"oooooooooooooooooooooooooooo    ",
"oooooooooooooooooooooooooooo    ",
"ooooooooooooooooooooooooooooo   ",
"ooooooooooooooooooooooooooooo   ",
"ooooooooooooooooooooooooooooo   ",
"ooooooooooooooooooooooooooooo   ",
"ooooooooooooooooooooooooooooo   ",
"ooooooooooooooooooooooooooooo   ",
"ooooooooooooooooooooooooooooo   ",
"oooooooooooooooooooooooooooo    ",
"oooooooooooooooooooooooooooo    ",
"oooooooooooooooooooooooooooo    ",
"oooooooooooooooooooooooooooo    ",
"oooooooooooooooooooooooooooo    ",
"oooooooooooooooooooooooooooo    ",
"oooooooooooooooooooooooooooo    "
};
