/* XPM */
static char *result[] = {
/* columns rows colors chars-per-pixel */
"32 32 5 1 ",
"  c #B86F50",
". c #733E39",
"X c #3E2731",
"o c #181425",
"O c white",
/* pixels */
"                                ",
"                                ",
"      ......                    ",
"    ...........            .....",
"   .............................",
"  ..............................",
"  ...X........X.................",
"  ...X.X......X............X....",
"  ...XXXXX...XX............X....",
"   .XXXXXXXXXXXXXX.........XX...",
"   .XXXXXXXXXXXXXXXXXXX...XXXXXX",
"   .XXXXXXXXXXXXXXXXXXXXXXXXXXXX",
"   .XXXXooXXXXXXXXXXXXXXXXXXXXXX",
"    XXoooooooXXXXXXXXXXXXXXXXXXX",
"    XooooooooooooooXXXXXXXXXXXXX",
"    XoooooooooooooooXXXXXXXXXXXX",
"    oooooooooooooooooooooooooooo",
"    oooooooooooooooooooooooooooo",
"    oooooooooooooooooooooooooooo",
"    oooooooooooooooooooooooooooo",
"    oooooooooooooooooooooooooooo",
"    oooooooooooooooooooooooooooo",
"    oooooooooooooooooooooooooooo",
"    oooooooooooooooooooooooooooo",
"    oooooooooooooooooooooooooooo",
"     ooooooooooooooooooooooooooo",
"     ooooooooooooooooooooooooooo",
"     ooooooooooooooooooooooooooo",
"     ooooooooooooooooooooooooooo",
"     ooooooooooooooooooooooooooo",
"    oooooooooooooooooooooooooooo",
"    oooooooooooooooooooooooooooo"
};
