/* XPM */
static char *b2b724993fb94bb7dd32e10e0234b0e52xzWTf8bFBsvflnP[] = {
/* columns rows colors chars-per-pixel */
"32 32 20 1 ",
"  c None",
". c #323234",
"X c #45321D",
"o c #42422E",
"O c #5C572C",
"+ c #444444",
"@ c gray31",
"# c #545456",
"$ c #616045",
"% c #6D6D6E",
"& c gray46",
"* c gray50",
"= c #857E30",
"- c #A26E46",
"; c #7F8164",
": c #B1A734",
"> c #CBC266",
", c #979797",
"< c #A6AA8C",
"1 c #E3DDA3",
/* pixels */
"                                ",
"                                ",
"            ooooooooo           ",
"          oo$$;;$;;$$oo         ",
"         o$;$;;;;;;;$;$o        ",
"        o$;<$;;;;;;;$<;$o       ",
"       o$;;<;<;;;;;<;<;;$o      ",
"       o$;;;;<<<<<<<;;;;$o      ",
"      o$;;;;;;<<<<<;;;;;;$o     ",
"      o$;;;;;;;;;;;;;;;;;$o     ",
"      o$;;;;;;;;;;;;;;;;;$o     ",
"      o$;;;;$;;;;;;;$;;;;$o     ",
"      oX$;$;$;;;$;;;$;$;$Xo     ",
"      X-$;$;$;;;$;;;$;$;$-X     ",
"      X-$$$;$$;;$;;$$;$$$-X     ",
"       X$$$$$$;$$$;$$$$$$X      ",
"        o$$$$$$$$$$$$$$$o       ",
"         o$$$$$$$$$$$$$o        ",
"       OO.o$o$$$$$$$o$o.OO      ",
"      O=.++o.o$o$o$o.o+.>=O     ",
"     O:.+++++.o.o.o.++#.1>:O    ",
"     O=.+++++++++++++#%#.1=O    ",
"      .++++#++####++##%#.::=O   ",
"      .+++##++###%#+##%%#.,*@   ",
"      .+++##+##%%%#+##%%%.,*@   ",
"     .+++##++#%%%%#+#%%%%#.&@   ",
"    .++++##+#%%%%%%+#%%%%%.@    ",
"    .+++####%%%%%%%##%%%%%#.    ",
"     .++###%%%%%%%%%#%%%%%%#.   ",
"     .+++#%%%%%%%#%%%%%%%%#+.   ",
"      ...##%%%%%####%%%%#+..    ",
"         ..+++######++++..      "
};
