/* XPM */
static char *result[] = {
/* columns rows colors chars-per-pixel */
"32 32 35 1 ",
"  c #2E1E22",
". c #323234",
"X c #45321D",
"o c #42422E",
"O c #534721",
"+ c #5C572C",
"@ c #6C4F2D",
"# c #444444",
"$ c gray31",
"% c #545456",
"& c #616045",
"* c #6D6D6E",
"= c gray46",
"- c gray50",
"; c #964F00",
": c #857E30",
"> c #A26E46",
", c #7F8164",
"< c #B1A734",
"1 c #B28F5F",
"2 c #B38C64",
"3 c #B69866",
"4 c #B99A6E",
"5 c #BC9F72",
"6 c #B7A876",
"7 c #BEA877",
"8 c #CBC266",
"9 c #979797",
"0 c #A6AA8C",
"q c #C3B380",
"w c #E3DDA3",
"e c gray85",
"r c #D9D9DD",
"t c white",
"y c None",
/* pixels */
"yyyyyyyyyyyyyyyyyyyyyyyyyyyyyyyy",
"yyyyyyyyyyyyyyyyyyyyyyyyyyyyyyyy",
"yyyyyyyyyyyyoooooooooyyyyyyyyyyy",
"yyyyyyyyyyoo&&,,&,,&&ooyyyyyyyyy",
"yyyyyyyyyo&,&,,,&,,,&,&oyyyyyyyy",
"yyyyyyyyo&,,,,0,,,0,,,,&oyyyyyyy",
"yyyyyyyo&,,0,,0,,,0,,0,,&oyyyyyy",
"yyyyyyyo&,,,0,,,&,,,0,,,&oyyyyyy",
"yyyyyyo&,&,&&&,,&,,&&&,&,&oyyyyy",
"yyyyyyo&,,&33q&&&&&q33&,,&oyyyyy",
"yyyyyyo&,,33qqqqqqqqq33,,&oyyyyy",
"yyyyyyo&&,3qqqqqqqqqqq3,&&oyyyyy",
"yyyyyyoX&,3qqqqqqqq4qq3,&Xoyyyyy",
"yyyyyyX>&>3qqqqqq727qq3>&>Xyyyyy",
"yyyyyyX>&>3OO6qq5276OO3>&>Xyyyyy",
"yyyyyyyXX@3e O64256O e3@XXyyyyyy",
"yyyyyyyyX@3t r524qqr t3@Xyyyyyyy",
"yyyyyyyyyX>3;;25qqq;;3>Xyyyyyyyy",
"yyyyyyy+..X>15qqqqqq3>X..+yyyyyy",
"yyyyyy+<##.X@>33333>@X.##<+yyyyy",
"yyyyy+<88###XXXXXXXXX###w8<+yyyy",
"yyyyy+:<88%%%%*<<<*%%%%w88:+yyyy",
"yyyyy$-+::+%%*w888w*%%::::+yyyyy",
"yyyyy$--$++<88<:::<88<+ww8:+yyyy",
"yyyyy.$$..+++::<8<::++$998<+yyyy",
"yyyyy.%#.+:<:++:::++::$99-$%.yyy",
"yyyy.#%.+:<w8<:www:<w<$--=$%.yyy",
"yyyy.%%.+:8w++<8w8<+w8:$$$**.yyy",
"yyyy.%...+w+:<+<8<+:+8+##.**.yyy",
"yyyyy.yyy.+:8w8+++---+y...*.yyyy",
"yyyyyyyyyyy$-99=yy$$$yyyyy.yyyyy",
"yyyyyyyyyyy$999=yyyyyyyyyyyyyyyy"
};
