/* XPM */
static char *_22351b3d4524eb1b554e08d6c4e2e10O8aMKqR9PsCHa5dx[] = {
/* columns rows colors chars-per-pixel */
"32 32 38 1 ",
"  c None",
". c #2E1E22",
"X c #323234",
"o c #45321D",
"O c #42422E",
"+ c #534721",
"@ c #5C572C",
"# c #6C4F2D",
"$ c #70482A",
"% c #444444",
"& c gray31",
"* c #545456",
"= c #565657",
"- c #616045",
"; c #6D6D6E",
": c gray46",
"> c gray50",
", c #964F00",
"< c #9A5838",
"1 c #857E30",
"2 c #A26E46",
"3 c #A97850",
"4 c #7F8164",
"5 c #B1A734",
"6 c #AE8358",
"7 c #B0875C",
"8 c #B69866",
"9 c #BC9F72",
"0 c #B7A876",
"q c #BEA877",
"w c #CBC266",
"e c #979797",
"r c #A6AA8C",
"t c #C3B380",
"y c #E3DDA3",
"u c gray85",
"i c #D9D9DD",
"p c white",
/* pixels */
"                                ",
"                                ",
"            OOOOOOOOO           ",
"          OO--44444--OO         ",
"         O-444----4444-O        ",
"        O-4---444444rr4-O       ",
"       O-4-4r4444rr4-4r4-       ",
"       O4-4r4-44--4r4-44-       ",
"      O-4-44-4rr44-44-44-       ",
"      O-4-4-4444ttttt8--o       ",
"      O--44-44--tttttt82o       ",
"      O--44-4-444ttttt88o       ",
"      O-44-4--444tttttt8o       ",
"      O-44-4oo44ttttttt8o       ",
"      O--4-ot8o4tt++0tt8o       ",
"      O--4-ot#84ttu.+0t6o       ",
"      O----o8@06ttp.it9<o       ",
"       O----X28tttt,,q3$o       ",
"        O----228ttttq72o        ",
"         O-O##2288822#o         ",
"          OXXXXXoooooo          ",
"          X%*;;;;;;*51@         ",
"         X%=;;y1*;;w51@         ",
"        X%=;;5@@5wyw1@@         ",
"       X%%*;;@wy@@@151@         ",
"       X%**;;5wwee&1@@          ",
"      X%%*;;*654ee&w5@          ",
"      X%**;;*@%;>:&w5@          ",
"      X%**;;*1@&&&@w1@&         ",
"       X%*;;:ee>1@@@@>&         ",
"        XX*;eeee&  &&&          ",
"          XX%%&&                "
};
