/* XPM */
static char *result[] = {
/* columns rows colors chars-per-pixel */
"32 32 4 1 ",
"  c #3E2731",
". c #733E39",
"X c #B86F50",
"o c white",
/* pixels */
"                                ",
"  .....   ............   .....  ",
" ....... .............. ....... ",
"........ .............. ........",
" ....... .............. ....... ",
".....XXX.XXXXXXXXXXXXXX.XXX.....",
".....XXX.XXXXXXXXXXXXXX.XXX.....",
" ....XX...XXXXXXXXXXXX...XX.... ",
"     ......................     ",
"    .XXXXX...XXXXXXXXXXXXXX.    ",
".. ..XXXXXX.XXXXXXXXXXXXXXX.. ..",
".. ..XXXXXX.XXXXXXXXXXXXXXX.. ..",
".. ..XXXXXX.XXXXXXXXXXXXXXX.. ..",
".. ..XXXXXX.XXXXXXXXXXXXXXX.. ..",
"    .XXXXX...XXXXXXXXXXXXXX.   .",
"     ......................     ",
".   .XXXXXXXXXXX.XXXXXXXXXX..  .",
".. ..XXXXXXXXXXX.XXXXXXXXXX.. ..",
".. ..XXXXXXXXXXX.XXXXXXXXXX.. ..",
".. ..XXXXXXXXXXX.XXXXXXXXXX.. ..",
".. ..XXXXXXXXXXX.XXXXXXXXXX.. ..",
".. ..XXXXXXXXXXX.XXXXXXXXXX.. ..",
"    .XXXXXXXXXX...XXXXXXXXX.    ",
"     ......................     ",
" ....XX...XXXXXXXXXXXX...XX.... ",
".....XXX.XXXXXXXXXXXXXX.XXX.....",
".....XXX.XXXXXXXXXXXXXX.XXX.....",
" ....... .............. ....... ",
"........ .............. ........",
" ....... .............. ....... ",
"  .....   ............   .....  ",
"                                "
};
