/* XPM */
static char *result[] = {
/* columns rows colors chars-per-pixel */
"32 32 4 1 ",
"  c #3E2731",
". c #733E39",
"X c #B86F50",
"o c white",
/* pixels */
" ....XX...XXXXXXXXXXXXXXXXXXXXXX",
".....XXX.XXXXXXXXXXXXXXXXXXXXXXX",
".....XXX.XXXXXXXXXXXXXXXXXXXXXXX",
".....XXX.XXXXXXXXXXXXXXXXXXXXXXX",
".....XXX.XXXXXXXXXXXXXXXXXXXXXXX",
".....XXX.XXXXXXXXXXXXXXXXXXXXXXX",
" ....XX...XXXXXXXXXXXXXXXXXXXXXX",
"     ...X..XXXXXXXXXXXXXXXXXXXXX",
"    .XXXXXXXXXXXXXXXXXXXXXXXXXXX",
".. ..XXXXXXXXXXXXXXXXXXXXXXXXXXX",
".. ..XXXXXXXXXXXXXXXXXXXXXXXXXXX",
".. ..XXXXXXXXXXXXXXXXXXXXXXXXXXX",
".. ..XXXXXXXXXXXXXXXXXXXXXXXXXXX",
".. ..XXXXXXXXXXXXXXXXXXXXXXXXXXX",
"    .XXXXXXXXXXXXXXXXXXXXXXXXXXX",
"     ...X..XXXXXXXXXXXXXXXXXXXXX",
" ....XX...XXXXXXXXXXXXXXXXXXXXXX",
".....XXX.XXXXXXXXXXXXXXXXXXXXXXX",
".....XXX.XXXXXXXXXXXXXXXXXXXXXXX",
".....XXX.XXXXXXXXXXXXXXXXXXXXXXX",
".....XXX.XXXXXXXXXXXXXXXXXXXXXXX",
".....XXX.XXXXXXXXXXXXXXXXXXXXXXX",
" ....XX...XXXXXXXXXXXXXXXXXXXXXX",
"     ...X..XXXXXXXXXXXXXXXXXXXXX",
"    .XXXXXXXXXXXXXXXXXXXXXXXXXXX",
".. ..XXXXXXXXXXXXXXXXXXXXXXXXXXX",
".. ..XXXXXXXXXXXXXXXXXXXXXXXXXXX",
".. ..XXXXXXXXXXXXXXXXXXXXXXXXXXX",
".. ..XXXXXXXXXXXXXXXXXXXXXXXXXXX",
".. ..XXXXXXXXXXXXXXXXXXXXXXXXXXX",
"    .XXXXXXXXXXXXXXXXXXXXXXXXXXX",
"     ...X..XXXXXXXXXXXXXXXXXXXXX"
};
