/* XPM */
static char *result[] = {
/* columns rows colors chars-per-pixel */
"32 32 4 1 ",
"  c #B86F50",
". c #733E39",
"X c #3E2731",
"o c white",
/* pixels */
"                           .XXXX",
"                           ..X..",
"                           ..X..",
"                           ..X..",
"                           ..X..",
"                           ..X..",
"                           .XXXX",
"                     .. ...XXXXX",
"                      ...  ....X",
"                       .   .....",
"                       .   .....",
"                       .   .....",
"                       .   .....",
"                       .   .....",
"                      ...  ....X",
"                     .. ...XXXXX",
"                           .XXXX",
"                           ..X..",
"                           ..X..",
"                           ..X..",
"                           ..X..",
"                           ..X..",
"                           .XXXX",
"                     .. ...XXXXX",
"                      ...  ....X",
"                       .   .....",
"                       .   .....",
"                       .   .....",
"                       .   .....",
"                       .   .....",
"                      ...  ....X",
"                     .. ...XXXXX"
};
