/* XPM */
static char *result[] = {
/* columns rows colors chars-per-pixel */
"32 32 4 1 ",
"  c #3E2731",
". c #733E39",
"X c #B86F50",
"o c white",
/* pixels */
"                                ",
" .....   .....   .....   .....  ",
"....... ....... ....... ....... ",
"....... ....... ....... ....... ",
"....... ....... ....... ....... ",
"XXXXXXX.XXXXXXX.XXXXXXX.XXXXXXX.",
"XXXXXXX.XXXXXXX.XXXXXXX.XXXXXXX.",
".XXXXX...XXXXX...XXXXX...XXXXX..",
".......X.......X.......X.......X",
"XX..XXXXXXXXXXXXXX...XXXXXXXXXXX",
"XXX.XXXXXXXXXXXXXXX.XXXXXXXXXXXX",
"XXX.XXXXXXXXXXXXXXX.XXXXXXXXXXXX",
"XXX.XXXXXXXXXXXXXXX.XXXXXXXXXXXX",
"XX.X.XXXXXXXXXXXXX.X.XXXXXXXXXXX",
"..XXX..XX.XX...XXXXXX..XXXXX..XX",
"XXXXXXXXXXXXXXXXXXXXXXXXXXXXXXXX",
"XXXXXXXXXXXXXXXXXXXXXXXXXXXXXXXX",
"XXXXXXXXXXXXXXXXXXXXXXXXXXXXXXXX",
"XXXXXXXXXXXXXXXXXXXXXXXXXXXXXXXX",
"XXXXXXXXXXXXXXXXXXXXXXXXXXXXXXXX",
"XXXXXXXXXXXXXXXXXXXXXXXXXXXXXXXX",
"XXXXXXXXXXXXXXXXXXXXXXXXXXXXXXXX",
"XXXXXXXXXXXXXXXXXXXXXXXXXXXXXXXX",
"XXXXXXXXXXXXXXXXXXXXXXXXXXXXXXXX",
"XXXXXXXXXXXXXXXXXXXXXXXXXXXXXXXX",
"XXXXXXXXXXXXXXXXXXXXXXXXXXXXXXXX",
"XXXXXXXXXXXXXXXXXXXXXXXXXXXXXXXX",
"XXXXXXXXXXXXXXXXXXXXXXXXXXXXXXXX",
"XXXXXXXXXXXXXXXXXXXXXXXXXXXXXXXX",
"XXXXXXXXXXXXXXXXXXXXXXXXXXXXXXXX",
"XXXXXXXXXXXXXXXXXXXXXXXXXXXXXXXX",
"XXXXXXXXXXXXXXXXXXXXXXXXXXXXXXXX"
};
