/* XPM */
static char *result[] = {
/* columns rows colors chars-per-pixel */
"32 32 4 1 ",
"  c #3E2731",
". c #733E39",
"X c #B86F50",
"o c white",
/* pixels */
"                                ",
" .....   .....   .....   .....  ",
"....... ....... ....... ....... ",
"....... ....... ....... ........",
"....... ....... ....... ....... ",
"XXXXXXX.XXXXXXX.XXXXXXX.XXX.....",
"XXXXXXX.XXXXXXX.XXXXXXX.XXX.....",
".XXXXX...XXXXX...XXXXX...XX.... ",
".......X.......X...........     ",
"XXXXXXXXXX...XXXXXXXXXX.XXX.    ",
"XXXXXXXXXXX.XXXXXXXXXXXXXXX.. ..",
"XXXXXXXXXXX.XXXXXXXXXXXXXXX.. ..",
"XXXXXXXXXXX.XXXXXXXXXXXXXXX.. ..",
"XXXXXXXXXX.X.XXXXXXXXXX.XXX.   .",
"X..XXXXX..XXXXXX...XX......     ",
"XXXXXXXXXXXXXXXXXXXXXX...XX.... ",
"XXXXXXXXXXXXXXXXXXXXXXX.XXX.....",
"XXXXXXXXXXXXXXXXXXXXXXX.XXX.....",
"XXXXXXXXXXXXXXXXXXXXXXX.XXX.....",
"XXXXXXXXXXXXXXXXXXXXXXX.XXX.....",
"XXXXXXXXXXXXXXXXXXXXXXX.XXX.....",
"XXXXXXXXXXXXXXXXXXXXXXX.XXX.....",
"XXXXXXXXXXXXXXXXXXXXXXX.XXX.....",
"XXXXXXXXXXXXXXXXXXXXXX...XX.... ",
"XXXXXXXXXXXXXXXXXXXXX..X...     ",
"XXXXXXXXXXXXXXXXXXXXXXXXXXX.    ",
"XXXXXXXXXXXXXXXXXXXXXXXXXXX.. ..",
"XXXXXXXXXXXXXXXXXXXXXXXXXXX.. ..",
"XXXXXXXXXXXXXXXXXXXXXXXXXXX.. ..",
"XXXXXXXXXXXXXXXXXXXXXXXXXXX.. ..",
"XXXXXXXXXXXXXXXXXXXXXXXXXXX.. ..",
"XXXXXXXXXXXXXXXXXXXXXXXXXXX.    "
};
