/* XPM */
static char *result[] = {
/* columns rows colors chars-per-pixel */
"32 32 4 1 ",
"  c #3E2731",
". c #733E39",
"X c #B86F50",
"o c white",
/* pixels */
"                                ",
"  .....   .....   .....   ..... ",
" ....... ....... ....... .......",
"........ ....... ....... .......",
" ....... ....... ....... .......",
".....XXX.XXXXXXX.XXXXXXX.XXXXXXX",
".....XXX.XXXXXXX.XXXXXXX.XXXXXXX",
" ....XX...XXXXX...XXXXX...XXXXX.",
"     ...........X.......X.......",
"    .XXX.XXXXXXXXXX...XXXXXXXXXX",
".. ..XXXXXXXXXXXXXXX.XXXXXXXXXXX",
".. ..XXXXXXXXXXXXXXX.XXXXXXXXXXX",
".. ..XXXXXXXXXXXXXXX.XXXXXXXXXXX",
".   .XXX.XXXXXXXXXX.X.XXXXXXXXXX",
"     ......XX...XXXXXX..XXXXX..X",
" ....XX...XXXXXXXXXXXXXXXXXXXXXX",
".....XXX.XXXXXXXXXXXXXXXXXXXXXXX",
".....XXX.XXXXXXXXXXXXXXXXXXXXXXX",
".....XXX.XXXXXXXXXXXXXXXXXXXXXXX",
".....XXX.XXXXXXXXXXXXXXXXXXXXXXX",
".....XXX.XXXXXXXXXXXXXXXXXXXXXXX",
".....XXX.XXXXXXXXXXXXXXXXXXXXXXX",
".....XXX.XXXXXXXXXXXXXXXXXXXXXXX",
" ....XX...XXXXXXXXXXXXXXXXXXXXXX",
"     ...X..XXXXXXXXXXXXXXXXXXXXX",
"    .XXXXXXXXXXXXXXXXXXXXXXXXXXX",
".. ..XXXXXXXXXXXXXXXXXXXXXXXXXXX",
".. ..XXXXXXXXXXXXXXXXXXXXXXXXXXX",
".. ..XXXXXXXXXXXXXXXXXXXXXXXXXXX",
".. ..XXXXXXXXXXXXXXXXXXXXXXXXXXX",
".. ..XXXXXXXXXXXXXXXXXXXXXXXXXXX",
"    .XXXXXXXXXXXXXXXXXXXXXXXXXXX"
};
